# xmcd
#
# Track frame offsets:
#	150
#	19155
#	52617
#
# Disc length: 1135 seconds
#
# Revision: 0
# Processed by: cddbd v1.4PL0 Copyright (c) Steve Scherf et al.
# Submitted via: audiograbber 1.80
#
DISCID=16046d03
DTITLE=JMB - JMB
DYEAR=1900
DGENRE=
TTITLE0=Roadmission
TTITLE1=Blue Horizon
TTITLE2=Birds In The sky
EXTD=
EXTT0=
EXTT1=
EXTT2=
PLAYORDER=
